<svg width="1440" height="1992" viewBox="0 0 1440 1992" fill="none" xmlns="http://www.w3.org/2000/svg">
<g clip-path="url(#clip0_1125_7107)">
<rect width="1440" height="1992" fill="black"/>
<g filter="url(#filter0_f_1125_7107)">
<rect x="-43" y="110" width="1526" height="70" fill="#257CB5"/>
</g>
<path fill-rule="evenodd" clip-rule="evenodd" d="M-11 -168.395L1451 -168.395V-169.395L-11 -169.395V-168.395ZM-8.00003 614.605L-8.00003 559.605H-11V558.605H-8.00003L-8.00003 503.605H-11V502.605H-8.00003L-8.00003 447.605H-11V446.605H-8.00003L-8.00002 391.605H-11V390.605H-8.00002L-8.00002 335.605H-11V334.605H-8.00002L-8.00002 279.605H-11V278.605H-8.00002L-8.00002 223.605H-11V222.605H-8.00002L-8.00001 167.605H-11V166.605H-8.00001L-8.00001 111.605H-11V110.605H-8.00001L-8.00001 55.605H-11V54.605H-8.00001L-8.00001 -0.39502H-11V-1.39502H-8.00001L-8 -56.395H-11V-57.395H-8L-8 -112.395H-11V-113.395H-8L-8 -129.395H-7L-7 -113.395L48 -113.395V-129.395H49V-113.395H104V-129.395H105V-113.395L160 -113.395V-129.395H161V-113.395L216 -113.395V-129.395H217V-113.395H272V-129.395H273V-113.395L328 -113.395V-129.395H329V-113.395L384 -113.395V-129.395H385V-113.395H440V-129.395H441V-113.395L496 -113.395V-129.395H497V-113.395L552 -113.395V-129.395H553V-113.395H608V-129.395H609V-113.395L664 -113.395V-129.395H665V-113.395H720V-129.395H721V-113.395H776V-129.395H777V-113.395L832 -113.395V-129.395H833V-113.395H888V-129.395H889V-113.395L944 -113.395V-129.395H945V-113.395L1000 -113.395V-129.395H1001V-113.395H1056V-129.395H1057V-113.395L1112 -113.395V-129.395H1113V-113.395L1168 -113.395V-129.395H1169V-113.395H1224V-129.395H1225V-113.395L1280 -113.395V-129.395H1281V-113.395L1336 -113.395V-129.395H1337V-113.395H1392V-129.395H1393V-113.395L1448 -113.395V-129.395H1449V-113.395H1451V-112.395H1449V-57.395H1451V-56.395H1449V-1.39496H1451V-0.394958H1449V54.605H1451V55.605H1449V110.605H1451V111.605H1449V166.605H1451V167.605H1449V222.605H1451V223.605H1449V278.605H1451V279.605H1449V334.605H1451V335.605H1449V390.605H1451V391.605H1449V446.605H1451V447.605H1449V502.605H1451V503.605H1449V558.605H1451V559.605H1449V614.605H1451V615.605H1449V670.605L1451 670.605V671.605L-11 671.605V670.605H-8.00004L-8.00003 615.605H-11V614.605H-8.00003ZM-7 -57.395L-7 -112.395L48 -112.395L48 -57.395H-7ZM49 -57.395L49 -112.395H104L104 -57.395L49 -57.395ZM105 -57.395L105 -112.395L160 -112.395L160 -57.395H105ZM161 -57.395L161 -112.395L216 -112.395L216 -57.395H161ZM217 -57.395L217 -112.395H272L272 -57.395L217 -57.395ZM273 -57.395L273 -112.395L328 -112.395L328 -57.395H273ZM329 -57.395L329 -112.395L384 -112.395L384 -57.395H329ZM385 -57.395L385 -112.395H440L440 -57.395H385ZM441 -57.395L441 -112.395L496 -112.395L496 -57.395L441 -57.395ZM497 -57.395L497 -112.395L552 -112.395L552 -57.395H497ZM553 -57.395L553 -112.395H608L608 -57.395H553ZM609 -57.395L609 -112.395L664 -112.395L664 -57.395L609 -57.395ZM665 -57.395L665 -112.395H720L720 -57.395H665ZM721 -57.395L721 -112.395H776L776 -57.395H721ZM777 -57.395L777 -112.395L832 -112.395L832 -57.395L777 -57.395ZM833 -57.395L833 -112.395H888L888 -57.395H833ZM889 -57.395L889 -112.395L944 -112.395L944 -57.395H889ZM945 -57.395L945 -112.395L1000 -112.395L1000 -57.395L945 -57.395ZM1001 -57.395L1001 -112.395H1056V-57.395H1001ZM1057 -57.395V-112.395L1112 -112.395V-57.395H1057ZM1113 -57.395V-112.395L1168 -112.395V-57.395H1113ZM1169 -57.395V-112.395H1224V-57.395L1169 -57.395ZM1225 -57.395V-112.395L1280 -112.395V-57.395H1225ZM1281 -57.395V-112.395L1336 -112.395V-57.395H1281ZM1337 -57.395V-112.395H1392V-57.395L1337 -57.395ZM1393 -57.395V-112.395L1448 -112.395V-57.395H1393ZM1448 -56.395H1393V-1.39496H1448V-56.395ZM1392 -56.395L1337 -56.395V-1.39496H1392V-56.395ZM1336 -56.395H1281V-1.39496H1336V-56.395ZM1280 -56.395H1225V-1.39497L1280 -1.39496V-56.395ZM1224 -56.395L1169 -56.395V-1.39497H1224V-56.395ZM1168 -56.395H1113V-1.39497H1168V-56.395ZM1112 -56.395H1057V-1.39497H1112V-56.395ZM1056 -56.395H1001V-1.39497H1056V-56.395ZM1000 -56.395L945 -56.395V-1.39497H1000V-56.395ZM944 -56.395H889V-1.39499L944 -1.39497V-56.395ZM888 -56.395H833V-1.39499H888V-56.395ZM832 -56.395L777 -56.395V-1.39499H832V-56.395ZM776 -56.395H721V-1.39499H776V-56.395ZM720 -56.395H665V-1.39499H720V-56.395ZM664 -56.395L609 -56.395V-1.39499H664V-56.395ZM608 -56.395H553V-1.39499H608V-56.395ZM552 -56.395H497V-1.395L552 -1.39499V-56.395ZM496 -56.395L441 -56.395V-1.395H496V-56.395ZM440 -56.395H385V-1.395H440V-56.395ZM384 -56.395H329V-1.395H384V-56.395ZM328 -56.395H273V-1.395H328V-56.395ZM272 -56.395L217 -56.395V-1.395H272V-56.395ZM216 -56.395H161V-1.39502L216 -1.395V-56.395ZM160 -56.395H105V-1.39502H160V-56.395ZM104 -56.395L49 -56.395V-1.39502H104V-56.395ZM48 -56.395H-7L-7.00001 -1.39502H48V-56.395ZM-7.00001 54.605L-7.00001 -0.39502H48L48 54.605H-7.00001ZM49 54.605L49 -0.39502H104L104 54.605H49ZM105 54.605L105 -0.39502H160L160 54.605H105ZM161 54.605L161 -0.39502L216 -0.395004L216 54.605L161 54.605ZM217 54.605L217 -0.395004H272V54.605H217ZM273 54.605V-0.395004H328V54.605H273ZM329 54.605V-0.395004H384V54.605H329ZM385 54.605V-0.395004H440V54.605H385ZM441 54.605V-0.395004H496V54.605H441ZM497 54.605V-0.395004L552 -0.394989V54.605L497 54.605ZM553 54.605V-0.394989H608V54.605H553ZM609 54.605V-0.394989H664V54.605H609ZM665 54.605V-0.394989H720V54.605H665ZM721 54.605V-0.394989H776V54.605H721ZM777 54.605V-0.394989H832V54.605H777ZM833 54.605V-0.394989H888V54.605H833ZM889 54.605V-0.394989L944 -0.394974V54.605L889 54.605ZM945 54.605V-0.394974H1000V54.605H945ZM1001 54.605V-0.394974H1056V54.605H1001ZM1057 54.605V-0.394974H1112V54.605H1057ZM1113 54.605V-0.394974H1168V54.605H1113ZM1169 54.605V-0.394974H1224V54.605H1169ZM1225 54.605V-0.394974L1280 -0.394958V54.605L1225 54.605ZM1281 54.605V-0.394958H1336V54.605H1281ZM1337 54.605V-0.394958H1392V54.605H1337ZM1393 54.605V-0.394958H1448V54.605H1393ZM1448 55.605H1393V110.605H1448V55.605ZM1392 55.605H1337V110.605H1392V55.605ZM1336 55.605H1281V110.605H1336V55.605ZM1280 55.605L1225 55.605V110.605H1280V55.605ZM1224 55.605H1169V110.605H1224V55.605ZM1168 55.605H1113V110.605H1168V55.605ZM1112 55.605H1057V110.605L1112 110.605V55.605ZM1056 55.605H1001V110.605H1056V55.605ZM1000 55.605H945V110.605H1000V55.605ZM944 55.605L889 55.605V110.605H944V55.605ZM888 55.605H833V110.605H888V55.605ZM832 55.605H777V110.605H832V55.605ZM776 55.605H721V110.605H776V55.605ZM720 55.605H665V110.605H720V55.605ZM664 55.605H609V110.605H664V55.605ZM608 55.605H553V110.605H608V55.605ZM552 55.605L497 55.605V110.605H552V55.605ZM496 55.605H441V110.605H496V55.605ZM440 55.605H385V110.605H440V55.605ZM384 55.605H329V110.605L384 110.605V55.605ZM328 55.605H273V110.605H328V55.605ZM272 55.605H217V110.605H272V55.605ZM216 55.605L161 55.605V110.605H216V55.605ZM160 55.605H105V110.605H160V55.605ZM104 55.605H49V110.605H104V55.605ZM48 55.605H-7.00001L-7.00001 110.605H48V55.605ZM-7.00001 166.605L-7.00001 111.605H48L48 166.605H-7.00001ZM49 166.605L49 111.605H104L104 166.605H49ZM105 166.605L105 111.605H160V166.605H105ZM161 166.605V111.605H216V166.605H161ZM217 166.605V111.605H272V166.605H217ZM273 166.605V111.605H328V166.605H273ZM329 166.605V111.605L384 111.605V166.605L329 166.605ZM385 166.605V111.605H440V166.605H385ZM441 166.605V111.605H496V166.605H441ZM497 166.605V111.605H552V166.605H497ZM553 166.605V111.605H608V166.605H553ZM609 166.605V111.605H664V166.605H609ZM665 166.605V111.605H720V166.605H665ZM721 166.605V111.605H776V166.605H721ZM777 166.605V111.605H832V166.605H777ZM833 166.605V111.605H888V166.605H833ZM889 166.605V111.605H944V166.605H889ZM945 166.605V111.605H1000V166.605H945ZM1001 166.605V111.605H1056V166.605H1001ZM1057 166.605V111.605L1112 111.605V166.605L1057 166.605ZM1113 166.605V111.605H1168V166.605H1113ZM1169 166.605V111.605H1224V166.605H1169ZM1225 166.605V111.605H1280V166.605H1225ZM1281 166.605V111.605H1336V166.605H1281ZM1337 166.605V111.605H1392V166.605H1337ZM1393 166.605V111.605H1448V166.605H1393ZM1448 167.605H1393V222.605H1448V167.605ZM1392 167.605H1337V222.605H1392V167.605ZM1336 167.605H1281V222.605H1336V167.605ZM1280 167.605H1225V222.605H1280V167.605ZM1224 167.605H1169V222.605H1224V167.605ZM1168 167.605H1113V222.605H1168V167.605ZM1112 167.605L1057 167.605V222.605L1112 222.605V167.605ZM1056 167.605H1001V222.605H1056V167.605ZM1000 167.605H945V222.605H1000V167.605ZM944 167.605H889V222.605H944V167.605ZM888 167.605H833V222.605H888V167.605ZM832 167.605H777V222.605H832V167.605ZM776 167.605H721V222.605H776V167.605ZM720 167.605H665V222.605H720V167.605ZM664 167.605H609V222.605H664V167.605ZM608 167.605H553V222.605H608V167.605ZM552 167.605H497V222.605H552V167.605ZM496 167.605H441V222.605H496V167.605ZM440 167.605H385V222.605H440V167.605ZM384 167.605L329 167.605V222.605L384 222.605V167.605ZM328 167.605H273V222.605H328V167.605ZM272 167.605H217V222.605H272V167.605ZM216 167.605H161V222.605H216V167.605ZM160 167.605H105V222.605H160V167.605ZM104 167.605H49V222.605H104V167.605ZM48 167.605H-7.00001L-7.00002 222.605H48V167.605ZM-7.00002 278.605L-7.00002 223.605H48L48 278.605H-7.00002ZM49 278.605L49 223.605H104L104 278.605H49ZM105 278.605L105 223.605H160V278.605H105ZM161 278.605V223.605H216V278.605H161ZM217 278.605V223.605H272V278.605H217ZM273 278.605V223.605H328V278.605H273ZM329 278.605V223.605L384 223.605V278.605L329 278.605ZM385 278.605V223.605H440V278.605H385ZM441 278.605V223.605H496V278.605H441ZM497 278.605V223.605H552V278.605H497ZM553 278.605V223.605H608V278.605H553ZM609 278.605V223.605H664V278.605H609ZM665 278.605V223.605H720V278.605H665ZM721 278.605V223.605H776V278.605H721ZM777 278.605V223.605H832V278.605H777ZM833 278.605V223.605H888V278.605H833ZM889 278.605V223.605H944V278.605H889ZM945 278.605V223.605H1000V278.605H945ZM1001 278.605V223.605H1056V278.605H1001ZM1057 278.605V223.605L1112 223.605V278.605L1057 278.605ZM1113 278.605V223.605H1168V278.605H1113ZM1169 278.605V223.605H1224V278.605H1169ZM1225 278.605V223.605H1280V278.605H1225ZM1281 278.605V223.605H1336V278.605H1281ZM1337 278.605V223.605H1392V278.605H1337ZM1393 278.605V223.605H1448V278.605H1393ZM1448 279.605H1393V334.605H1448V279.605ZM1392 279.605H1337V334.605H1392V279.605ZM1336 279.605H1281V334.605H1336V279.605ZM1280 279.605H1225V334.605H1280V279.605ZM1224 279.605H1169V334.605H1224V279.605ZM1168 279.605H1113V334.605H1168V279.605ZM1112 279.605L1057 279.605V334.605L1112 334.605V279.605ZM1056 279.605H1001V334.605H1056V279.605ZM1000 279.605H945V334.605H1000V279.605ZM944 279.605H889V334.605H944V279.605ZM888 279.605H833V334.605H888V279.605ZM832 279.605H777V334.605H832V279.605ZM776 279.605H721V334.605H776V279.605ZM720 279.605H665V334.605H720V279.605ZM664 279.605H609V334.605H664V279.605ZM608 279.605H553V334.605H608V279.605ZM552 279.605H497V334.605H552V279.605ZM496 279.605H441V334.605H496V279.605ZM440 279.605H385V334.605H440V279.605ZM384 279.605L329 279.605V334.605L384 334.605V279.605ZM328 279.605H273V334.605H328V279.605ZM272 279.605H217V334.605H272V279.605ZM216 279.605H161V334.605H216V279.605ZM160 279.605H105V334.605H160V279.605ZM104 279.605H49V334.605H104V279.605ZM48 279.605H-7.00002L-7.00002 334.605H48V279.605ZM-7.00002 390.605L-7.00002 335.605H48L48 390.605H-7.00002ZM49 390.605L49 335.605H104L104 390.605H49ZM105 390.605L105 335.605H160V390.605H105ZM161 390.605V335.605H216V390.605H161ZM217 390.605V335.605H272V390.605H217ZM273 390.605V335.605H328V390.605H273ZM329 390.605V335.605L384 335.605V390.605H329ZM385 390.605V335.605H440V390.605H385ZM441 390.605V335.605H496V390.605H441ZM497 390.605V335.605H552V390.605H497ZM553 390.605V335.605H608V390.605H553ZM609 390.605V335.605H664V390.605H609ZM665 390.605V335.605H720V390.605H665ZM721 390.605V335.605H776V390.605H721ZM777 390.605V335.605H832V390.605H777ZM833 390.605V335.605H888V390.605H833ZM889 390.605V335.605H944V390.605H889ZM945 390.605V335.605H1000V390.605H945ZM1001 390.605V335.605H1056V390.605H1001ZM1057 390.605V335.605L1112 335.605V390.605H1057ZM1113 390.605V335.605H1168V390.605H1113ZM1169 390.605V335.605H1224V390.605H1169ZM1225 390.605V335.605H1280V390.605H1225ZM1281 390.605V335.605H1336V390.605H1281ZM1337 390.605V335.605H1392V390.605H1337ZM1393 390.605V335.605H1448V390.605H1393ZM1448 391.605H1393V446.605H1448V391.605ZM1392 391.605H1337V446.605H1392V391.605ZM1336 391.605H1281V446.605H1336V391.605ZM1280 391.605H1225V446.605H1280V391.605ZM1224 391.605H1169V446.605H1224V391.605ZM1168 391.605H1113V446.605H1168V391.605ZM1112 391.605H1057V446.605H1112V391.605ZM1056 391.605H1001V446.605H1056V391.605ZM1000 391.605H945V446.605H1000V391.605ZM944 391.605H889V446.605H944V391.605ZM888 391.605H833V446.605H888V391.605ZM832 391.605H777V446.605H832V391.605ZM776 391.605H721V446.605H776V391.605ZM720 391.605H665V446.605H720V391.605ZM664 391.605H609V446.605H664V391.605ZM608 391.605H553V446.605H608V391.605ZM552 391.605H497V446.605H552V391.605ZM496 391.605H441V446.605H496V391.605ZM440 391.605H385V446.605H440V391.605ZM384 391.605H329V446.605H384V391.605ZM328 391.605H273V446.605H328V391.605ZM272 391.605H217V446.605H272V391.605ZM216 391.605H161V446.605H216V391.605ZM160 391.605H105V446.605H160V391.605ZM104 391.605H49V446.605H104V391.605ZM48 391.605H-7.00002L-7.00003 446.605H48V391.605ZM-7.00003 502.605L-7.00003 447.605H48L48 502.605H-7.00003ZM49 502.605L49 447.605H104V502.605H49ZM105 502.605V447.605H160V502.605H105ZM161 502.605V447.605H216V502.605H161ZM217 502.605V447.605H272V502.605H217ZM273 502.605V447.605H328V502.605H273ZM329 502.605V447.605H384V502.605H329ZM385 502.605V447.605H440V502.605H385ZM441 502.605V447.605H496V502.605H441ZM497 502.605V447.605H552V502.605H497ZM553 502.605V447.605H608V502.605H553ZM609 502.605V447.605H664V502.605H609ZM665 502.605V447.605H720V502.605H665ZM721 502.605V447.605H776V502.605H721ZM777 502.605V447.605H832V502.605H777ZM833 502.605V447.605H888V502.605H833ZM889 502.605V447.605H944V502.605H889ZM945 502.605V447.605H1000V502.605H945ZM1001 502.605V447.605H1056V502.605H1001ZM1057 502.605V447.605H1112V502.605H1057ZM1113 502.605V447.605H1168V502.605H1113ZM1169 502.605V447.605H1224V502.605H1169ZM1225 502.605V447.605H1280V502.605H1225ZM1281 502.605V447.605H1336V502.605H1281ZM1337 502.605V447.605H1392V502.605H1337ZM1393 502.605V447.605H1448V502.605H1393ZM1448 503.605H1393V558.605H1448V503.605ZM1392 503.605H1337V558.605H1392V503.605ZM1336 503.605H1281V558.605H1336V503.605ZM1280 503.605H1225V558.605H1280V503.605ZM1224 503.605H1169V558.605H1224V503.605ZM1168 503.605H1113V558.605H1168V503.605ZM1112 503.605H1057V558.605H1112V503.605ZM1056 503.605H1001V558.605H1056V503.605ZM1000 503.605H945V558.605H1000V503.605ZM944 503.605H889V558.605H944V503.605ZM888 503.605H833V558.605H888V503.605ZM832 503.605H777V558.605H832V503.605ZM776 503.605H721V558.605H776V503.605ZM720 503.605H665V558.605H720V503.605ZM664 503.605H609V558.605H664V503.605ZM608 503.605H553V558.605H608V503.605ZM552 503.605H497V558.605H552V503.605ZM496 503.605H441V558.605H496V503.605ZM440 503.605H385V558.605H440V503.605ZM384 503.605H329V558.605H384V503.605ZM328 503.605H273V558.605H328V503.605ZM272 503.605H217V558.605H272V503.605ZM216 503.605H161V558.605H216V503.605ZM160 503.605H105V558.605H160V503.605ZM104 503.605H49L49 558.605H104V503.605ZM48 503.605H-7.00003L-7.00003 558.605H48L48 503.605ZM-7.00003 614.605L-7.00003 559.605H48L48 614.605H-7.00003ZM49 614.605L49 559.605H104V614.605H49ZM105 614.605V559.605H160V614.605H105ZM161 614.605V559.605H216V614.605H161ZM217 614.605V559.605H272V614.605H217ZM273 614.605V559.605H328V614.605H273ZM329 614.605V559.605H384V614.605H329ZM385 614.605V559.605H440V614.605H385ZM441 614.605V559.605H496V614.605H441ZM497 614.605V559.605H552V614.605H497ZM553 614.605V559.605H608V614.605H553ZM609 614.605V559.605H664V614.605H609ZM665 614.605V559.605H720V614.605H665ZM721 614.605V559.605H776V614.605H721ZM777 614.605V559.605H832V614.605H777ZM833 614.605V559.605H888V614.605H833ZM889 614.605V559.605H944V614.605H889ZM945 614.605V559.605H1000V614.605H945ZM1001 614.605V559.605H1056V614.605H1001ZM1057 614.605V559.605H1112V614.605H1057ZM1113 614.605V559.605H1168V614.605H1113ZM1169 614.605V559.605H1224V614.605H1169ZM1225 614.605V559.605H1280V614.605H1225ZM1281 614.605V559.605H1336V614.605H1281ZM1337 614.605V559.605H1392V614.605H1337ZM1393 614.605V559.605H1448V614.605H1393ZM-7.00003 615.605L-7.00004 670.605H48L48 615.605H-7.00003ZM49 615.605L49 670.605H104V615.605H49ZM105 615.605V670.605H160V615.605H105ZM161 615.605V670.605H216V615.605H161ZM217 615.605V670.605H272V615.605H217ZM273 615.605V670.605H328V615.605H273ZM329 615.605V670.605H384V615.605H329ZM385 615.605V670.605H440V615.605H385ZM441 615.605V670.605H496V615.605H441ZM497 615.605V670.605H552V615.605H497ZM553 615.605V670.605H608V615.605H553ZM609 615.605V670.605H664V615.605H609ZM665 615.605V670.605H720V615.605H665ZM721 615.605V670.605H776V615.605H721ZM777 615.605V670.605H832V615.605H777ZM833 615.605V670.605H888V615.605H833ZM889 615.605V670.605H944V615.605H889ZM945 615.605V670.605H1000V615.605H945ZM1001 615.605V670.605H1056V615.605H1001ZM1057 615.605V670.605H1112V615.605H1057ZM1113 615.605V670.605H1168V615.605H1113ZM1169 615.605V670.605H1224V615.605H1169ZM1225 615.605V670.605H1280V615.605H1225ZM1281 615.605V670.605H1336V615.605H1281ZM1337 615.605V670.605H1392V615.605H1337ZM1393 615.605V670.605H1448V615.605H1393Z" fill="url(#paint0_linear_1125_7107)" fill-opacity="0.12"/>
</g>
<defs>
<filter id="filter0_f_1125_7107" x="-493" y="-340" width="2426" height="970" filterUnits="userSpaceOnUse" color-interpolation-filters="sRGB">
<feFlood flood-opacity="0" result="BackgroundImageFix"/>
<feBlend mode="normal" in="SourceGraphic" in2="BackgroundImageFix" result="shape"/>
<feGaussianBlur stdDeviation="225" result="effect1_foregroundBlur_1125_7107"/>
</filter>
<linearGradient id="paint0_linear_1125_7107" x1="720" y1="63.9876" x2="720" y2="671.605" gradientUnits="userSpaceOnUse">
<stop stop-color="white" stop-opacity="0"/>
<stop offset="1" stop-color="white"/>
</linearGradient>
<clipPath id="clip0_1125_7107">
<rect width="1440" height="1992" fill="white"/>
</clipPath>
</defs>
</svg>